<svg xmlns="http://www.w3.org/2000/svg" width="800" height="800" preserveAspectRatio="xMidYMid meet" version="1.0" viewBox="0 0 600 600"><metadata>Created by potrace 1.14, written by Peter Selinger 2001-2017</metadata><g fill="#000" stroke="none"><path d="M2975 5868 c-63 -23 -137 -129 -181 -258 -10 -30 -19 -57 -19 -60 -1 -3 -5 -24 -9 -48 -8 -45 -11 -48 -58 -57 -67 -12 -82 -17 -100 -26 -10 -5 -18 -8 -18 -5 0 9 -118 -37 -216 -84 -86 -42 -240 -137 -281 -174 -6 -6 -47 -42 -90 -81 -172 -152 -260 -292 -347 -555 -25 -74 -47 -146 -49 -160 -3 -14 -10 -45 -17 -70 -7 -25 -13 -52 -15 -60 -2 -8 -10 -46 -19 -85 -9 -38 -19 -88 -22 -110 -4 -22 -8 -49 -10 -60 -2 -11 -9 -56 -15 -100 -7 -44 -17 -87 -24 -95 -11 -14 -22 -35 -83 -155 -64 -124 -82 -195 -77 -298 3 -45 7 -93 10 -107 3 -14 8 -38 11 -55 17 -96 68 -219 131 -316 55 -85 205 -239 233 -239 5 0 10 -4 10 -8 0 -5 34 -28 74 -52 55 -33 72 -47 65 -56 -6 -7 -9 -29 -7 -50 3 -35 1 -37 -37 -48 -50 -14 -54 -33 -19 -85 32 -49 74 -76 131 -86 l41 -6 -48 -63 c-64 -86 -77 -149 -53 -256 24 -110 26 -115 36 -121 6 -4 1 -19 -12 -37 -59 -83 -75 -178 -41 -247 33 -69 127 -126 212 -129 34 -1 40 -7 49 -58 42 -227 129 -375 308 -527 22 -19 23 -22 8 -45 -36 -55 -102 -112 -132 -114 -73 -6 -120 -14 -137 -23 -10 -5 -18 -7 -18 -4 0 3 -16 -6 -35 -20 -35 -27 -82 -113 -93 -169 -11 -54 -4 -143 12 -175 18 -33 54 -56 107 -67 52 -11 131 -11 160 -2 22 8 32 4 59 -21 39 -35 89 -49 160 -44 56 4 82 14 117 45 12 11 26 17 32 14 5 -4 31 -11 58 -16 42 -8 54 -6 100 16 44 21 56 33 77 77 34 71 37 115 16 202 -10 41 -21 100 -26 132 -8 65 -9 211 -1 219 7 7 190 -56 198 -67 15 -24 -8 -194 -34 -249 -16 -34 -22 -64 -22 -121 1 -67 4 -82 30 -124 47 -76 121 -102 214 -75 29 8 38 6 63 -15 66 -55 207 -52 270 7 29 27 36 29 65 20 37 -11 126 -8 163 6 14 5 30 10 35 11 21 2 64 53 71 84 12 53 11 79 -3 141 -31 137 -86 195 -195 209 -43 5 -41 13 5 15 23 2 53 5 67 7 14 2 45 7 70 10 52 7 156 32 185 44 11 4 58 23 104 41 157 61 292 149 404 263 81 81 113 141 93 172 -7 11 -25 26 -40 33 -15 8 -33 30 -42 51 -29 74 -82 77 -169 12 -41 -31 -56 -37 -86 -33 -36 4 -37 5 -50 65 -16 79 -32 118 -57 141 -18 16 -28 17 -89 7 -38 -6 -88 -17 -110 -25 -38 -13 -42 -13 -62 5 -12 11 -21 25 -22 32 -1 7 -2 40 -4 75 -5 99 -15 152 -32 178 -16 25 -20 26 -87 28 -31 1 -40 6 -47 24 -8 21 -7 22 19 9 49 -25 150 -40 230 -35 154 11 205 57 250 227 35 129 22 219 -47 332 -15 25 -28 60 -29 78 -2 62 -49 105 -122 110 -55 3 -118 -50 -142 -121 -3 -6 -95 16 -158 38 -8 3 20 18 65 35 44 16 103 39 130 51 46 21 206 111 230 129 105 83 148 122 222 203 57 64 133 218 164 337 23 88 32 287 16 359 -24 111 -79 230 -150 326 -25 34 -48 77 -50 95 -3 19 -11 70 -17 114 -6 44 -13 89 -15 100 -3 18 -19 97 -29 150 -38 196 -114 421 -188 560 -71 133 -302 348 -477 444 -105 57 -271 127 -271 115 0 -4 -6 -2 -12 4 -7 5 -41 16 -75 22 -50 10 -63 17 -64 31 -2 28 -6 59 -8 62 -2 1 -4 13 -7 27 -21 132 -80 255 -139 294 -32 21 -83 27 -120 14z m-795 -3489 c3 1 14 -2 25 -6 16 -5 10 -10 -30 -29 -28 -13 -56 -23 -63 -24 -7 0 -20 17 -29 38 -10 20 -24 45 -32 55 -13 16 -5 15 54 -8 39 -14 72 -26 75 -26z" transform="translate(0.000000,600.000000) scale(0.100000,-0.100000)"/></g></svg>